<svg width="60" height="60" viewBox="0 0 60 60" fill="none" xmlns="http://www.w3.org/2000/svg" xmlns:xlink="http://www.w3.org/1999/xlink">
<path d="M52.5,0L7.5,0C3.364,0 0,3.364 0,7.5L0,52.5C0,56.636 3.364,60 7.5,60L52.5,60C56.636,60 60,56.636 60,52.5L60,7.5C60,3.364 56.636,0 52.5,0Z" fill="#1976D2"/>
<path d="M50.625,30L41.25,30L41.25,22.5C41.25,20.43 42.93,20.625 45,20.625L48.75,20.625L48.75,11.25L41.25,11.25C38.266,11.25 35.405,12.435 33.295,14.545C31.185,16.655 30,19.516 30,22.5L30,30L22.5,30L22.5,39.375L30,39.375L30,60L41.25,60L41.25,39.375L46.875,39.375L50.625,30Z" clip-rule="evenodd" fill-rule="evenodd" fill="#FAFAFA"/>
</svg>
