<svg width="60" height="60" viewBox="0 0 60 60" fill="none" xmlns="http://www.w3.org/2000/svg" xmlns:xlink="http://www.w3.org/1999/xlink">
<path d="M15.215,59.788C12.894,59.762 10.595,59.336 8.419,58.529C6.83,57.942 5.392,57.007 4.211,55.792C2.993,54.613 2.056,53.175 1.471,51.585C0.665,49.409 0.24,47.11 0.214,44.789C0.036,40.932 0,39.775 0,30C0,20.225 0.039,19.072 0.212,15.212C0.241,12.892 0.666,10.595 1.471,8.419C2.059,6.829 2.994,5.391 4.208,4.208C5.388,2.992 6.827,2.056 8.417,1.471C10.593,0.664 12.892,0.238 15.213,0.212C19.072,0.036 20.231,0 30,0C39.769,0 40.928,0.039 44.788,0.212C47.108,0.241 49.407,0.666 51.583,1.471C53.173,2.057 54.611,2.992 55.791,4.208C57.007,5.388 57.943,6.827 58.529,8.417C59.336,10.593 59.762,12.892 59.788,15.213C59.965,19.074 60.001,20.229 60.001,30.001C60.001,39.773 59.965,40.929 59.788,44.789C59.76,47.11 59.334,49.408 58.529,51.585C57.92,53.163 56.988,54.596 55.791,55.792C54.595,56.989 53.161,57.921 51.583,58.529C49.407,59.336 47.108,59.762 44.787,59.788C40.93,59.965 39.771,60.001 29.999,60.001C20.227,60.001 19.071,59.966 15.214,59.788Z" fill="url(#pf_0_253_66)"/>
<path d="M15.215,59.788C12.894,59.762 10.595,59.336 8.419,58.529C6.83,57.942 5.392,57.007 4.211,55.792C2.993,54.613 2.056,53.175 1.471,51.585C0.665,49.409 0.24,47.11 0.214,44.789C0.036,40.932 0,39.775 0,30C0,20.225 0.039,19.072 0.212,15.212C0.241,12.892 0.666,10.595 1.471,8.419C2.059,6.829 2.994,5.391 4.208,4.208C5.388,2.992 6.827,2.056 8.417,1.471C10.593,0.664 12.892,0.238 15.213,0.212C19.072,0.036 20.231,0 30,0C39.769,0 40.928,0.039 44.788,0.212C47.108,0.241 49.407,0.666 51.583,1.471C53.173,2.057 54.611,2.992 55.791,4.208C57.007,5.388 57.943,6.827 58.529,8.417C59.336,10.593 59.762,12.892 59.788,15.213C59.965,19.074 60.001,20.229 60.001,30.001C60.001,39.773 59.965,40.929 59.788,44.789C59.76,47.11 59.334,49.408 58.529,51.585C57.92,53.163 56.988,54.596 55.791,55.792C54.595,56.989 53.161,57.921 51.583,58.529C49.407,59.336 47.108,59.762 44.787,59.788C40.93,59.965 39.771,60.001 29.999,60.001C20.227,60.001 19.071,59.966 15.214,59.788Z" fill="url(#pf_0_253_67)"/>
<path d="M22.634,30.128C22.634,28.658 23.07,27.222 23.886,26C24.703,24.778 25.863,23.826 27.221,23.264C28.579,22.701 30.073,22.554 31.514,22.841C32.955,23.128 34.279,23.836 35.318,24.875C36.357,25.914 37.064,27.238 37.351,28.68C37.637,30.121 37.49,31.615 36.928,32.973C36.365,34.33 35.413,35.49 34.191,36.307C32.969,37.123 31.532,37.558 30.062,37.558C28.092,37.558 26.202,36.775 24.809,35.381C23.416,33.988 22.633,32.098 22.634,30.128ZM18.617,30.128C18.617,32.391 19.288,34.604 20.546,36.487C21.803,38.369 23.591,39.836 25.682,40.702C27.774,41.569 30.075,41.795 32.295,41.354C34.516,40.912 36.555,39.822 38.156,38.221C39.757,36.62 40.847,34.581 41.288,32.361C41.73,30.14 41.503,27.839 40.637,25.748C39.771,23.656 38.304,21.868 36.421,20.611C34.539,19.353 32.326,18.682 30.062,18.682C28.559,18.682 27.071,18.978 25.682,19.553C24.294,20.128 23.032,20.971 21.969,22.034C20.906,23.097 20.063,24.359 19.488,25.747C18.913,27.136 18.617,28.625 18.617,30.128ZM39.287,18.228C39.286,18.757 39.443,19.274 39.737,19.714C40.03,20.154 40.448,20.497 40.937,20.7C41.425,20.903 41.963,20.956 42.482,20.853C43.001,20.75 43.477,20.495 43.852,20.122C44.226,19.748 44.481,19.271 44.584,18.752C44.688,18.234 44.635,17.696 44.433,17.207C44.231,16.718 43.888,16.3 43.448,16.006C43.008,15.712 42.491,15.555 41.962,15.555C41.253,15.555 40.573,15.837 40.072,16.338C39.57,16.839 39.288,17.519 39.288,18.228M21.058,48.272C19.645,48.256 18.245,47.998 16.919,47.507C15.958,47.136 15.084,46.569 14.356,45.84C13.627,45.112 13.059,44.239 12.688,43.278C12.197,41.952 11.938,40.552 11.923,39.138C11.815,36.789 11.794,36.083 11.794,30.131C11.794,24.178 11.817,23.474 11.923,21.122C11.94,19.709 12.199,18.309 12.688,16.983C13.058,16.021 13.626,15.148 14.355,14.419C15.084,13.69 15.957,13.122 16.919,12.752C18.245,12.261 19.645,12.002 21.058,11.987C23.408,11.879 24.114,11.858 30.064,11.858C36.014,11.858 36.72,11.881 39.072,11.988C40.485,12.005 41.885,12.263 43.211,12.752C44.173,13.123 45.046,13.691 45.775,14.42C46.504,15.148 47.072,16.022 47.442,16.984C47.933,18.309 48.192,19.71 48.207,21.123C48.315,23.476 48.337,24.178 48.337,30.131C48.337,36.084 48.315,36.788 48.207,39.139C48.191,40.553 47.932,41.953 47.442,43.279C47.071,44.24 46.503,45.113 45.775,45.841C45.046,46.57 44.173,47.138 43.211,47.508C41.886,47.999 40.485,48.258 39.072,48.273C36.722,48.381 36.017,48.402 30.064,48.402C24.111,48.402 23.407,48.381 21.058,48.273M20.874,7.974C19.024,8.01 17.194,8.36 15.462,9.009C13.981,9.581 12.636,10.457 11.513,11.58C10.391,12.703 9.515,14.047 8.942,15.528C8.294,17.261 7.944,19.091 7.907,20.94C7.797,23.317 7.772,24.077 7.772,30.13C7.772,36.184 7.798,36.943 7.907,39.32C7.944,41.169 8.294,42.999 8.942,44.732C9.515,46.213 10.391,47.557 11.513,48.68C12.636,49.803 13.981,50.679 15.462,51.251C17.194,51.9 19.024,52.25 20.874,52.286C23.251,52.395 24.01,52.421 30.064,52.421C36.117,52.421 36.877,52.396 39.254,52.286C41.103,52.25 42.933,51.9 44.665,51.251C46.146,50.679 47.491,49.803 48.614,48.68C49.736,47.557 50.612,46.213 51.185,44.732C51.834,43 52.184,41.17 52.22,39.32C52.328,36.942 52.353,36.184 52.353,30.13C52.353,24.077 52.328,23.317 52.22,20.94C52.184,19.091 51.834,17.261 51.185,15.528C50.612,14.048 49.737,12.703 48.614,11.58C47.492,10.458 46.148,9.582 44.667,9.009C42.935,8.36 41.105,8.01 39.255,7.974C36.878,7.865 36.119,7.839 30.067,7.839C24.014,7.839 23.253,7.864 20.875,7.974Z" fill="#FFFFFF"/>
<defs>
<radialGradient id="pf_0_253_66" cx="0" cy="0" r="1" gradientUnits="userSpaceOnUse" gradientTransform="matrix(38.088824 0 0 38.088824 1.941 29.343)">
<stop offset="0.09" stop-color="#FA8F21"/>
<stop offset="0.78" stop-color="#D82D7E"/>
</radialGradient>
<radialGradient id="pf_0_253_67" cx="0" cy="0" r="1" gradientUnits="userSpaceOnUse" gradientTransform="matrix(33.518529 0 0 33.518529 20.78 28.379)">
<stop offset="0.64" stop-color="#8C3AAA" stop-opacity="0"/>
<stop offset="1" stop-color="#8C3AAA"/>
</radialGradient>
</defs>
</svg>
