<svg width="70" height="70" viewBox="0 0 70 70" fill="none" xmlns="http://www.w3.org/2000/svg" xmlns:xlink="http://www.w3.org/1999/xlink">
<path d="M66.445,53.676C66.445,60.699 60.699,66.445 53.676,66.445L16.324,66.445C9.301,66.445 3.555,60.699 3.555,53.676L3.555,16.324C3.555,9.301 9.301,3.555 16.324,3.555L53.676,3.555C60.699,3.555 66.445,9.301 66.445,16.324L66.445,53.676Z" fill="#41464A"/>
<path d="M39.706,31.864L54.834,13.009L50.453,13.009L37.516,29.134L24.579,13.009L10.134,13.009L30.293,38.135L15.164,56.992L19.546,56.992L32.484,40.866L45.423,56.992L59.867,56.992L39.706,31.864ZM17.257,16.427L22.938,16.427L52.743,53.574L47.062,53.574L17.257,16.427Z" fill="#F0F0F1"/>
</svg>
